# xmcd
#
# Track frame offsets: 
#        150
#        18089
#        34481
#        53976
#        69701
#        89894
#        106174
#        125829
#        147534
#        162749
#        184576
#        206011
#        228786
#
# Disc length: 3263 seconds
#
# Revision: 0
# Processed by: cddbd v1.5.2PL0 Copyright (c) Steve Scherf et al.
# Submitted via: ExactAudioCopy v1.3
#
DISCID=c40cbd0d
DTITLE=Fenton Robinson - Special Road
DYEAR=1989
DGENRE=Chicago Blues
TTITLE0=7-11 Blues
TTITLE1=Love Is Just A Gamble
TTITLE2=Special Road
TTITLE3=Too Many Drivers
TTITLE4=Baby Please Don't Go
TTITLE5=Crying The Blues
TTITLE6=Find A Way
TTITLE7=R.M. Blues
TTITLE8=Slick And Greasy
TTITLE9=Blue Monday
TTITLE10=Money Problem
TTITLE11=Nothing But A Fool
TTITLE12=Little Turch
EXTD=
EXTT0=
EXTT1=
EXTT2=
EXTT3=
EXTT4=
EXTT5=
EXTT6=
EXTT7=
EXTT8=
EXTT9=
EXTT10=
EXTT11=
EXTT12=
PLAYORDER=
